<svg width="776.76" height="175.23" version="1.0" viewBox="0 0 548 162" xmlns="http://www.w3.org/2000/svg">
<g transform="matrix(1.1556 0 0 1.1556 -305.34 -7.4928)">
<polygon points="221.79 39.175 221.79 7.156 215.94 7.156 206.48 32.744 196.88 7.156 190.93 7.156 190.93 39.175 194.34 39.175 194.34 11.236 204.8 39.175 207.54 39.175 217.9 11.236 217.9 39.175"/>
<path d="m233.15 15.507h-3.696v23.668h3.696v-23.668zm0.143-8.351h-3.983v4.08h3.983v-4.08z" clip-rule="evenodd" fill-rule="evenodd"/>
<path d="m254.46 30.871c-0.769 3.889-2.784 5.904-5.76 5.904-3.936 0-6.239-3.553-6.239-9.504 0-5.762 2.399-9.361 6.287-9.361 1.824 0 3.408 0.814 4.464 2.256 0.624 0.912 0.96 1.775 1.248 3.6l3.312-0.623c-0.96-5.377-4.128-8.258-8.976-8.258-6.144 0-10.175 4.992-10.175 12.482 0 7.535 3.936 12.434 9.983 12.434 2.64 0 4.703-0.816 6.383-2.545 1.536-1.537 2.208-2.928 2.784-5.809l-3.311-0.576z"/>
<path d="m266.55 39.175v-12.529c0.097-5.041 3.504-8.594 7.968-8.209v-3.504c-0.528-0.049-1.056-0.096-1.344-0.096-1.824 0-3.601 0.814-4.656 2.064-0.863 1.055-1.296 1.775-2.447 4.127v-5.521h-3.216v23.668h3.695z"/>
<path d="m286.8 14.884c-6.335 0-10.702 5.041-10.702 12.387 0 7.535 4.127 12.529 10.318 12.529 6.384 0 10.943-5.09 10.943-12.195 1e-3 -7.729-4.127-12.721-10.559-12.721zm-0.143 3.026c1.92 0 3.791 0.959 4.991 2.543 1.152 1.633 1.68 3.744 1.68 6.961 0 5.857-2.495 9.361-6.623 9.361-4.176 0-6.575-3.457-6.575-9.553 0-2.881 0.576-5.186 1.632-6.721 1.103-1.584 3.023-2.591 4.895-2.591z" clip-rule="evenodd" fill-rule="evenodd"/>
<path d="m299.65 33.031c0.576 2.064 1.199 3.072 2.447 4.129 2.017 1.775 4.704 2.641 8.063 2.641 5.855 0 9.743-2.93 9.743-7.25 0-3.84-2.352-6.145-7.199-7.008l-4.655-0.816c-2.496-0.48-3.696-1.537-3.696-3.313 0-2.113 2.016-3.504 5.088-3.504 3.023 0 4.943 1.15 6.048 3.695l3.359-0.719c-1.152-3.938-4.368-6.002-9.311-6.002-5.376 0-8.928 2.785-8.928 6.961 0 3.359 2.352 5.76 6.383 6.529l4.992 0.912c2.688 0.527 4.08 1.729 4.08 3.648 0 2.305-2.256 3.84-5.568 3.84-2.207 0-4.463-0.672-5.808-1.775-0.768-0.625-1.151-1.346-1.536-2.689l-3.502 0.721z"/>
<path d="m333.97 14.884c-6.336 0-10.703 5.041-10.703 12.387 0 7.535 4.128 12.529 10.319 12.529 6.383 0 10.942-5.09 10.942-12.195 1e-3 -7.729-4.126-12.721-10.558-12.721zm-0.143 3.026c1.919 0 3.791 0.959 4.991 2.543 1.151 1.633 1.68 3.744 1.68 6.961 0 5.857-2.496 9.361-6.623 9.361-4.176 0-6.575-3.457-6.575-9.553 0-2.881 0.575-5.186 1.631-6.721 1.104-1.584 3.024-2.591 4.896-2.591z" clip-rule="evenodd" fill-rule="evenodd"/>
<path d="m359.82 15.507h-5.76c0-2.59 0-2.783 0.432-3.791 0.528-1.488 2.063-2.256 4.512-2.256 0.721 0 1.2 0.047 2.208 0.336v-2.976c-1.632-0.24-2.496-0.336-3.504-0.336-3.071 0-5.472 1.439-6.287 3.744-0.528 1.393-0.672 2.352-0.769 5.279h-4.175v2.881h4.175v20.787h3.408v-20.787h5.76v-2.881z"/>
<path d="m376.48 36.63c-1.296 0.24-1.968 0.289-2.832 0.289-2.544 0-3.839-1.248-3.839-3.697v-14.834h5.327v-2.881h-5.327v-6.24l-3.456 0.289-0.145 5.951h-4.175v2.881h4.175v14.258c0 4.752 2.304 7.201 6.768 7.201 1.104 0 1.872-0.047 3.504-0.287v-2.93z"/>
<polygon points="763.91 100.46 746.75 71.447 761.2 49.191 751.53 49.191 741.96 64.271 733.54 49.191 720.23 49.191 735 74.046 717.94 100.46 727.92 100.46 739.78 81.744 750.6 100.46" fill="#f4793b"/>
<path d="m778.45 117.83v-24.545c3.328 5.721 7.695 8.217 14.145 8.217 5.926 0 10.297-2.08 13.414-6.346 3.953-5.303 6.035-12.48 6.035-20.696 0-7.697-1.875-14.354-5.516-19.553-3.223-4.576-7.488-6.762-13.102-6.762-6.969 0-11.961 3.121-15.602 9.984v-8.943h-11.129v68.643h11.755v1e-3zm0-45.659c0-8.424 4.574-14.561 11.023-14.561 6.551 0 10.297 6.447 10.297 17.682 0 10.711-3.848 17.057-10.191 17.057-6.449 0-11.129-5.408-11.129-12.896v-7.282z" clip-rule="evenodd" fill="#f4793b" fill-rule="evenodd"/>
<polygon points="314.9 49.193 299.63 49.193 281.49 119.17 262.34 49.193 244.78 49.193 227.5 119.17 209.07 49.193 190.64 49.193 216.84 145.23 234.55 145.23 251.98 74.677 271.12 145.23 289.27 145.23"/>
<path d="m335.77 145.23v-70.983h-15.982v70.983h15.982zm0-79.335v-16.701h-15.982v16.701h15.982z" clip-rule="evenodd" fill-rule="evenodd"/>
<path d="m408.04 145.23v-45.786c0-7.344-0.863-11.951-3.024-16.127-3.168-6.192-11.23-10.51-19.438-10.51-9.646 0-15.838 5.039-21.741 17.854v-16.414h-14.542v70.983h15.981v-36.428c0-5.471 0.864-9.789 2.592-13.244 2.736-5.328 7.775-8.783 13.103-8.783 6.768 0 11.087 5.471 11.087 14.109v44.346h15.982z"/>
<path d="m479.76 145.23v-96.036h-15.98v34.7c-3.891-8.495-9.938-12.528-19.008-12.528-7.484 0-13.535 2.594-17.996 7.776-6.336 7.199-9.934 17.998-9.934 29.66 0 10.943 3.309 22.463 8.063 28.797 4.605 5.904 11.23 9.07 19.004 9.07 10.078 0 16.414-4.895 20.879-15.693v14.254h14.972zm-15.981-29.803c0 10.223-6.625 18.141-15.121 18.141-9.645 0-14.828-8.35-14.828-23.9 0-15.838 5.473-24.621 15.262-24.621 4.176 0 8.063 1.871 10.941 5.326 2.738 3.313 3.746 6.768 3.746 12.959v12.095z" clip-rule="evenodd" fill-rule="evenodd"/>
<path d="m521.81 72.806c-19.582 0-33.262 15.118-33.262 36.715 0 9.07 2.305 17.135 7.055 24.045 5.762 8.639 14.398 13.102 25.34 13.102 19.871 0 33.695-15.117 33.695-36.859 0-9.213-1.73-15.693-5.906-22.461-6.336-9.934-14.973-14.542-26.922-14.542zm0 13.102c10.223 0 15.836 8.207 15.836 23.469 0 15.551-5.758 24.189-16.125 24.189-10.223 0-15.984-8.639-15.984-23.9s5.905-23.758 16.273-23.758z" clip-rule="evenodd" fill-rule="evenodd"/>
<polygon points="651.53 74.246 638 74.246 624.32 122.05 611.79 74.246 597.25 74.246 585.16 122.05 571.05 74.246 554.06 74.246 575.94 145.23 590.77 145.23 603.44 95.412 616.26 145.23 630.65 145.23"/>
<path d="m648.22 128.96c1.73 5.471 3.602 8.207 7.344 11.086 5.906 4.32 13.68 6.623 22.75 6.623 18.863 0 30.957-8.926 30.957-23.035 0-11.23-6.047-18.287-17.855-20.59l-15.262-3.168c-7.199-1.439-10.223-3.887-10.223-8.063 0-4.607 4.895-7.633 12.527-7.633 7.344 0 11.086 2.305 12.957 8.064l14.398-3.023c-3.313-10.799-12.668-16.415-27.355-16.415-9.934 0-16.844 2.447-21.742 7.776-3.598 3.887-5.613 9.215-5.613 14.83 0 11.518 6.766 18.141 21.453 20.877l12.957 2.592c4.754 0.863 7.777 3.6 7.777 7.055 0 5.615-5.328 8.783-14.402 8.783-8.637 0-12.668-2.305-15.691-8.639l-14.977 2.88z"/>
</g>
</svg>
